<?xml version="1.0" encoding="UTF-8"?>
<svg version="1.1" xmlns="http://www.w3.org/2000/svg" width="24" height="24">
<path d="M0 0 C7.92 0 15.84 0 24 0 C24 7.92 24 15.84 24 24 C16.08 24 8.16 24 0 24 C0 16.08 0 8.16 0 0 Z " fill="#21FF12" transform="translate(0,0)"/>
<path d="M0 0 C0 6.6 0 13.2 0 20 C-6.6 20 -13.2 20 -20 20 C-13.23827936 12.11132592 -13.23827936 12.11132592 -10.60546875 9.47265625 C-10.04279297 8.90869141 -9.48011719 8.34472656 -8.90039062 7.76367188 C-8.05250977 6.9215918 -8.05250977 6.9215918 -7.1875 6.0625 C-6.31061523 5.17981445 -6.31061523 5.17981445 -5.41601562 4.27929688 C-1.12677846 0 -1.12677846 0 0 0 Z " fill="#FFD000" transform="translate(24,4)"/>
<path d="M0 0 C5.61 0 11.22 0 17 0 C12.02838782 6.01826738 6.70170757 11.66337352 1 17 C0.67 17 0.34 17 0 17 C0 11.39 0 5.78 0 0 Z " fill="#00BEFF" transform="translate(0,0)"/>
<path d="M0 0 C1.32 0.33 2.64 0.66 4 1 C-2.6 7.6 -9.2 14.2 -16 21 C-16.33 19.68 -16.66 18.36 -17 17 C-15.61645508 14.96948242 -15.61645508 14.96948242 -13.51953125 12.85546875 C-12.76736328 12.09685547 -12.01519531 11.33824219 -11.24023438 10.55664062 C-10.03850586 9.38391602 -10.03850586 9.38391602 -8.8125 8.1875 C-8.03068359 7.38634766 -7.24886719 6.58519531 -6.44335938 5.75976562 C-5.68474609 5.00759766 -4.92613281 4.25542969 -4.14453125 3.48046875 C-3.44690674 2.78848389 -2.74928223 2.09649902 -2.03051758 1.38354492 C-1.36044678 0.9269751 -0.69037598 0.47040527 0 0 Z " fill="#00FF9E" transform="translate(17,0)"/>
<path d="M0 0 C0.33 1.32 0.66 2.64 1 4 C-0.29174805 5.9387207 -0.29174805 5.9387207 -2.26171875 7.92578125 C-2.96876953 8.63927734 -3.67582031 9.35277344 -4.40429688 10.08789062 C-5.53448242 11.18907227 -5.53448242 11.18907227 -6.6875 12.3125 C-7.42162109 13.06595703 -8.15574219 13.81941406 -8.91210938 14.59570312 C-9.98235352 15.6562793 -9.98235352 15.6562793 -11.07421875 16.73828125 C-11.72994873 17.38837158 -12.38567871 18.03846191 -13.0612793 18.70825195 C-14.02094604 19.34766724 -14.02094604 19.34766724 -15 20 C-16.32 19.67 -17.64 19.34 -19 19 C-12.73 12.73 -6.46 6.46 0 0 Z " fill="#BFFF00" transform="translate(23,4)"/>
<path d="M0 0 C0 3.3 0 6.6 0 10 C-3.3 10 -6.6 10 -10 10 C-1.50943396 0 -1.50943396 0 0 0 Z " fill="#FF8300" transform="translate(24,14)"/>
<path d="M0 0 C3.3 0 6.6 0 10 0 C6.7366183 3.93089159 4.11767846 6.91174115 0 10 C0 6.7 0 3.4 0 0 Z " fill="#0082FF" transform="translate(0,0)"/>
<path d="M0 0 C0.99 0.33 1.98 0.66 3 1 C-2.28 6.28 -7.56 11.56 -13 17 C-13.33 16.01 -13.66 15.02 -14 14 C-9.38 9.38 -4.76 4.76 0 0 Z " fill="#00F2FC" transform="translate(14,0)"/>
<path d="M0 0 C0.33 0 0.66 0 1 0 C1 1.98 1 3.96 1 6 C-0.98 6 -2.96 6 -5 6 C-3.35830472 3.97945196 -1.69088222 1.97956942 0 0 Z " fill="#FF4200" transform="translate(23,18)"/>
<path d="M0 0 C1.98 0 3.96 0 6 0 C4.35830472 2.02054804 2.69088222 4.02043058 1 6 C0.67 6 0.34 6 0 6 C0 4.02 0 2.04 0 0 Z " fill="#0041FF" transform="translate(0,0)"/>
</svg>
