<?xml version="1.0" encoding="UTF-8" standalone="no"?>
<!-- Uploaded to: SVG Repo, www.svgrepo.com, Generator: SVG Repo Mixer Tools -->

<svg
   width="800"
   height="800"
   viewBox="0 0 24 24"
   version="1.1"
   id="svg2"
   xmlns="http://www.w3.org/2000/svg"
   xmlns:svg="http://www.w3.org/2000/svg">
  <defs
     id="defs2" />
  <path
     d="M 5.947,8 A 13.059,13.059 0 0 0 5.035,12 H 2 v 1 h 3 a 13.656,13.656 0 0 0 0.589,4 H 3.15 L 1.772,20.727 2.71,21.074 3.849,18 h 2.098 c 1.213,2.984 3.47,5 6.053,5 2.583,0 4.84,-2.016 6.053,-5 h 2.098 l 1.138,3.074 0.938,-0.347 L 20.849,17 H 18.41 A 13.656,13.656 0 0 0 19,13 h 3 V 12 H 18.965 A 13.059,13.059 0 0 0 18.053,8 h 2.796 L 22.227,4.273 21.289,3.926 20.151,7 H 17.587 A 8.187,8.187 0 0 0 14.839,3.868 l 2.515,-2.514 -0.707,-0.707 -2.74,2.74 a 4.893,4.893 0 0 0 -3.813,0 L 7.354,0.647 6.647,1.353 9.16,3.868 A 8.187,8.187 0 0 0 6.413,7 H 3.85 L 2.71,3.926 1.772,4.273 3.151,8 Z M 12,4 c 2.449,0 4.556,2.214 5.488,5.375 a 12.684,12.684 0 0 0 -10.976,0 C 7.444,6.216 9.552,4 12,4 Z m 0,18 A 4.196,4.196 0 0 1 10.152,21.559 L 12,11.987 13.848,21.559 A 4.196,4.196 0 0 1 12,22 Z m 2.756,-1.015 -2.094,-10.848 a 10.973,10.973 0 0 0 -1.324,0 L 9.244,20.985 C 7.319,19.485 6,16.472 6,13 a 13.191,13.191 0 0 1 0.216,-2.355 l 0.356,-0.197 h 0.001 a 11.622,11.622 0 0 1 10.854,0 l 0.358,0.197 A 13.191,13.191 0 0 1 18,13 c 0,3.472 -1.32,6.485 -3.244,7.985 z"
     id="path1"
     style="fill:#e5e5e5;fill-opacity:1;fill-rule:nonzero;stroke-width:0.99999;stroke-dasharray:none" />
  <path
     fill="none"
     d="M 0,0 H 24 V 24 H 0 Z"
     id="path2" />
</svg>
