<?xml version="1.0" encoding="UTF-8"?>
<svg id="Layer_1" data-name="Layer 1" xmlns="http://www.w3.org/2000/svg" viewBox="0 0 1024 300">
  <defs>
    <style>
      .cls-1 {
        fill: #005581;
        font-size: 153.51px;
      }

      .cls-2 {
        fill: #afdfe0;
      }

      .cls-2, .cls-3, .cls-4 {
        stroke-width: 0px;
      }

      .cls-3 {
        fill: #16557e;
      }

      .cls-5 {
        letter-spacing: -.1em;
      }

      .cls-5, .cls-6 {
        font-family: Arial-BoldMT, Arial;
        font-weight: 700;
      }

      .cls-7 {
        font-family: ArialMT, Arial;
      }

      .cls-7, .cls-6 {
        letter-spacing: -.11em;
      }

      .cls-4 {
        fill: #28bbc7;
      }
    </style>
  </defs>
  <text class="cls-1" transform="translate(335.67 201.64) scale(1.18 1)"><tspan class="cls-5" x="0" y="0">T</tspan><tspan class="cls-6" x="79.19" y="0">U</tspan><tspan class="cls-7" x="173.32" y="0">FLOW</tspan></text>
  <path class="cls-2" d="M300.33,85.66c-50.4-10.29-115.28.83-161.77,26.25-46.41,25.97-86.97,52.04-122.59,105.71,45.5-43.07,83.04-68.43,126.31-85.79,47.51-18.2,105.23-25.86,150.54-10.74l7.5-35.42Z"/>
  <path class="cls-4" d="M324.71,130.35c-54.04-23.47-109.84-24.25-162.89-7.76-52.98,17.12-102.1,45.02-145.85,95.02,51.38-38.87,98.33-60.61,150.46-70.91,52.09-9.78,102.89-6.35,150.94,21.15l7.33-37.51Z"/>
  <path class="cls-3" d="M341.46,177.49c-54.78-34.87-108.62-42.27-165.18-35.17-56.43,10.74-111.07,31.43-160.31,75.3,53.91-36.98,101.97-47.04,157.15-47.83,55.1-.26,113.7,9.92,161.93,47.83l6.41-40.13Z"/>
</svg>