<svg width="3520" height="1077" xmlns="http://www.w3.org/2000/svg" xmlns:xlink="http://www.w3.org/1999/xlink" xml:space="preserve" overflow="hidden"><g transform="translate(-440 -722)"><g><g><g><text fill="#005581" font-family="Arial,Arial_MSFontService,sans-serif" font-weight="700" font-size="154" transform="matrix(4.05625 0 0 3.43667 1593.87 1415)">T</text><text fill="#005581" font-family="Arial,Arial_MSFontService,sans-serif" font-weight="700" font-size="154" transform="matrix(4.05625 0 0 3.43667 1915.08 1415)">U</text><text fill="#005581" font-family="Arial,Arial_MSFontService,sans-serif" font-weight="400" font-size="154" transform="matrix(4.05625 0 0 3.43667 2296.89 1415)">FLOW</text><path d="M1032.13 294.385C858.926 259.022 635.955 297.237 476.185 384.597 316.689 473.848 177.298 563.442 54.8836 747.888 211.252 599.87 340.264 512.716 488.969 453.056 652.245 390.509 850.61 364.184 1006.33 416.146L1032.1 294.419Z" fill="#AFDFE0" transform="matrix(1.00024 0 0 1 440 722)"/><path d="M1115.92 447.97C930.203 367.311 738.437 364.63 556.122 421.301 374.047 480.137 205.238 576.02 54.8836 747.853 231.46 614.27 392.811 539.557 571.965 504.159 750.981 470.548 925.563 482.336 1090.7 576.845L1115.89 447.935Z" fill="#28BBC7" transform="matrix(1.00024 0 0 1 440 722)"/><path d="M1173.48 609.974C985.224 490.137 800.194 464.706 605.816 489.107 411.885 526.016 224.105 597.121 54.8836 747.888 240.154 620.8 405.321 586.227 594.956 583.512 784.316 582.618 985.705 617.604 1151.46 747.888L1173.48 609.974Z" fill="#16557E" transform="matrix(1.00024 0 0 1 440 722)"/></g></g></g><text fill="#FF0000" font-family="Aptos,Aptos_MSFontService,sans-serif" font-weight="400" font-size="165" transform="matrix(1 0 0 1 1129.56 1653)">Release Candidate 2025.1</text></g></svg>