<svg width="1653" height="993" xmlns="http://www.w3.org/2000/svg" xmlns:xlink="http://www.w3.org/1999/xlink" xml:space="preserve" overflow="hidden"><defs><clipPath id="clip0"><rect x="1933" y="348" width="1653" height="993"/></clipPath></defs><g clip-path="url(#clip0)" transform="translate(-1933 -348)"><rect x="1934" y="349" width="1650" height="990" fill="#FFFFFF"/><g><path d="M2140.5 1053.53 3501.5 1053.53M2140.5 972.532 3501.5 972.532M2140.5 890.529 3501.5 890.529M2140.5 808.527 3501.5 808.527M2140.5 726.524 3501.5 726.524M2140.5 644.521 3501.5 644.521M2140.5 562.519 3501.5 562.519M2140.5 481.516 3501.5 481.516M2140.5 399.5 3501.5 399.5" stroke="#D9D9D9" stroke-width="3.4375" stroke-linejoin="round" stroke-miterlimit="10" fill="none"/></g><g><path d="M2412.58 399.5 2412.58 1135.5M2684.59 399.5 2684.59 1135.5M2957.6 399.5 2957.6 1135.5M3229.61 399.5 3229.61 1135.5M3501.5 399.5 3501.5 1135.5" stroke="#D9D9D9" stroke-width="3.4375" stroke-linejoin="round" stroke-miterlimit="10" fill="none"/></g><g><path d="M0 0 0.000360892 736" stroke="#BFBFBF" stroke-width="3.4375" stroke-linejoin="round" stroke-miterlimit="10" fill="none" fill-rule="evenodd" transform="matrix(1 0 0 -1 2140.5 1135.5)"/></g><g><path d="M2140.5 1135.5 3501.5 1135.5" stroke="#BFBFBF" stroke-width="3.4375" stroke-linejoin="round" stroke-miterlimit="10" fill="none" fill-rule="evenodd"/></g><g><path d="M2140.5 1094.5C2147.76 1067.25 2155.02 1040 2162.28 1012.75 2169.53 985.5 2174.07 958.25 2184.05 931 2194.03 903.75 2206.74 876.5 2222.16 849.25 2237.58 822 2249.38 794.75 2276.6 767.5 2303.82 740.25 2326.5 713 2385.48 685.75 2444.46 658.5 2526.12 631.25 2630.46 604 2734.8 576.75 2866.37 549.5 3011.54 522.25 3156.71 495 3338.18 467.75 3501.5 440.5" stroke="#156082" stroke-width="6.875" stroke-linecap="round" stroke-linejoin="round" stroke-miterlimit="10" fill="none"/></g><g><path d="M2151.09 1094.41C2151.09 1100.48 2146.17 1105.41 2140.09 1105.41 2134.02 1105.41 2129.09 1100.48 2129.09 1094.41 2129.09 1088.33 2134.02 1083.41 2140.09 1083.41 2146.17 1083.41 2151.09 1088.33 2151.09 1094.41Z" stroke="#156082" stroke-width="3.4375" stroke-linejoin="round" stroke-miterlimit="10" fill="#156082"/><path d="M2173.09 1013.41C2173.09 1019.48 2168.17 1024.41 2162.09 1024.41 2156.02 1024.41 2151.09 1019.48 2151.09 1013.41 2151.09 1007.33 2156.02 1002.41 2162.09 1002.41 2168.17 1002.41 2173.09 1007.33 2173.09 1013.41Z" stroke="#156082" stroke-width="3.4375" stroke-linejoin="round" stroke-miterlimit="10" fill="#156082"/><path d="M2195.09 931.406C2195.09 937.481 2190.17 942.406 2184.09 942.406 2178.02 942.406 2173.09 937.481 2173.09 931.406 2173.09 925.331 2178.02 920.406 2184.09 920.406 2190.17 920.406 2195.09 925.331 2195.09 931.406Z" stroke="#156082" stroke-width="3.4375" stroke-linejoin="round" stroke-miterlimit="10" fill="#156082"/><path d="M2233.09 849.406C2233.09 855.481 2228.17 860.405 2222.09 860.405 2216.02 860.405 2211.09 855.481 2211.09 849.406 2211.09 843.331 2216.02 838.406 2222.09 838.406 2228.17 838.406 2233.09 843.331 2233.09 849.406Z" stroke="#156082" stroke-width="3.4375" stroke-linejoin="round" stroke-miterlimit="10" fill="#156082"/><path d="M2287.09 767.406C2287.09 773.481 2282.17 778.406 2276.09 778.406 2270.02 778.406 2265.09 773.481 2265.09 767.406 2265.09 761.331 2270.02 756.406 2276.09 756.406 2282.17 756.406 2287.09 761.331 2287.09 767.406Z" stroke="#156082" stroke-width="3.4375" stroke-linejoin="round" stroke-miterlimit="10" fill="#156082"/><path d="M2396.09 685.406C2396.09 691.481 2391.17 696.405 2385.09 696.405 2379.02 696.405 2374.09 691.481 2374.09 685.406 2374.09 679.331 2379.02 674.406 2385.09 674.406 2391.17 674.406 2396.09 679.331 2396.09 685.406Z" stroke="#156082" stroke-width="3.4375" stroke-linejoin="round" stroke-miterlimit="10" fill="#156082"/><path d="M2641.09 603.406C2641.09 609.481 2636.17 614.406 2630.09 614.406 2624.02 614.406 2619.09 609.481 2619.09 603.406 2619.09 597.331 2624.02 592.406 2630.09 592.406 2636.17 592.406 2641.09 597.331 2641.09 603.406Z" stroke="#156082" stroke-width="3.4375" stroke-linejoin="round" stroke-miterlimit="10" fill="#156082"/><path d="M3022.09 522.406C3022.09 528.481 3017.17 533.405 3011.09 533.405 3005.02 533.405 3000.09 528.481 3000.09 522.406 3000.09 516.331 3005.02 511.406 3011.09 511.406 3017.17 511.406 3022.09 516.331 3022.09 522.406Z" stroke="#156082" stroke-width="3.4375" stroke-linejoin="round" stroke-miterlimit="10" fill="#156082"/><path d="M3512.09 440.406C3512.09 446.481 3507.17 451.406 3501.09 451.406 3495.02 451.406 3490.09 446.481 3490.09 440.406 3490.09 434.331 3495.02 429.406 3501.09 429.406 3507.17 429.406 3512.09 434.331 3512.09 440.406Z" stroke="#156082" stroke-width="3.4375" stroke-linejoin="round" stroke-miterlimit="10" fill="#156082"/></g><g><text fill="#595959" font-family="Aptos Narrow,Aptos Narrow_MSFontService,sans-serif" font-weight="400" font-stretch="semi-condensed" font-size="41" transform="matrix(1 0 0 1 2060.57 1147)">24</text></g><g><text fill="#595959" font-family="Aptos Narrow,Aptos Narrow_MSFontService,sans-serif" font-weight="400" font-stretch="semi-condensed" font-size="41" transform="matrix(1 0 0 1 2060.57 1065)">25</text></g><g><text fill="#595959" font-family="Aptos Narrow,Aptos Narrow_MSFontService,sans-serif" font-weight="400" font-stretch="semi-condensed" font-size="41" transform="matrix(1 0 0 1 2060.57 984)">26</text></g><g><text fill="#595959" font-family="Aptos Narrow,Aptos Narrow_MSFontService,sans-serif" font-weight="400" font-stretch="semi-condensed" font-size="41" transform="matrix(1 0 0 1 2060.57 902)">27</text></g><g><text fill="#595959" font-family="Aptos Narrow,Aptos Narrow_MSFontService,sans-serif" font-weight="400" font-stretch="semi-condensed" font-size="41" transform="matrix(1 0 0 1 2060.57 820)">28</text></g><g><text fill="#595959" font-family="Aptos Narrow,Aptos Narrow_MSFontService,sans-serif" font-weight="400" font-stretch="semi-condensed" font-size="41" transform="matrix(1 0 0 1 2060.57 738)">29</text></g><g><text fill="#595959" font-family="Aptos Narrow,Aptos Narrow_MSFontService,sans-serif" font-weight="400" font-stretch="semi-condensed" font-size="41" transform="matrix(1 0 0 1 2060.57 656)">30</text></g><g><text fill="#595959" font-family="Aptos Narrow,Aptos Narrow_MSFontService,sans-serif" font-weight="400" font-stretch="semi-condensed" font-size="41" transform="matrix(1 0 0 1 2060.57 575)">31</text></g><g><text fill="#595959" font-family="Aptos Narrow,Aptos Narrow_MSFontService,sans-serif" font-weight="400" font-stretch="semi-condensed" font-size="41" transform="matrix(1 0 0 1 2060.57 493)">32</text></g><g><text fill="#595959" font-family="Aptos Narrow,Aptos Narrow_MSFontService,sans-serif" font-weight="400" font-stretch="semi-condensed" font-size="41" transform="matrix(1 0 0 1 2060.57 411)">33</text></g><g><text fill="#595959" font-family="Aptos Narrow,Aptos Narrow_MSFontService,sans-serif" font-weight="400" font-stretch="semi-condensed" font-size="41" transform="matrix(1 0 0 1 2130.01 1201)">0</text></g><g><text fill="#595959" font-family="Aptos Narrow,Aptos Narrow_MSFontService,sans-serif" font-weight="400" font-stretch="semi-condensed" font-size="41" transform="matrix(1 0 0 1 2391.83 1201)">50</text></g><g><text fill="#595959" font-family="Aptos Narrow,Aptos Narrow_MSFontService,sans-serif" font-weight="400" font-stretch="semi-condensed" font-size="41" transform="matrix(1 0 0 1 2653.66 1201)">100</text></g><g><text fill="#595959" font-family="Aptos Narrow,Aptos Narrow_MSFontService,sans-serif" font-weight="400" font-stretch="semi-condensed" font-size="41" transform="matrix(1 0 0 1 2925.93 1201)">150</text></g><g><text fill="#595959" font-family="Aptos Narrow,Aptos Narrow_MSFontService,sans-serif" font-weight="400" font-stretch="semi-condensed" font-size="41" transform="matrix(1 0 0 1 3198.2 1201)">200</text></g><g><text fill="#595959" font-family="Aptos Narrow,Aptos Narrow_MSFontService,sans-serif" font-weight="400" font-stretch="semi-condensed" font-size="41" transform="matrix(1 0 0 1 3470.48 1201)">250</text></g><g><text fill="#595959" font-family="Aptos Narrow,Aptos Narrow_MSFontService,sans-serif" font-weight="400" font-stretch="semi-condensed" font-size="46" transform="matrix(6.12323e-17 -1 1 6.12323e-17 2033.88 842)">H (mRL)</text></g><g><text fill="#595959" font-family="Aptos Narrow,Aptos Narrow_MSFontService,sans-serif" font-weight="400" font-stretch="semi-condensed" font-size="46" transform="matrix(1 0 0 1 2744.59 1269)">Q (m</text></g><g><text fill="#595959" font-family="Aptos Narrow,Aptos Narrow_MSFontService,sans-serif" font-weight="400" font-stretch="semi-condensed" font-size="31" transform="matrix(1 0 0 1 2833.62 1255)">3</text></g><g><text fill="#595959" font-family="Aptos Narrow,Aptos Narrow_MSFontService,sans-serif" font-weight="400" font-stretch="semi-condensed" font-size="46" transform="matrix(1 0 0 1 2849.11 1269)">/s)</text></g><rect x="1934.5" y="349.5" width="1650" height="990" stroke="#D9D9D9" stroke-width="3.4375" stroke-linejoin="round" stroke-miterlimit="10" fill="none"/></g></svg>